<svg width="148" height="37" viewBox="0 0 148 37" fill="none" xmlns="http://www.w3.org/2000/svg">
<path d="M55.86 22.6162C56.0067 22.6162 56.1333 22.6695 56.24 22.7762C56.3467 22.8829 56.4 23.0095 56.4 23.1562V24.5762C56.4 24.7229 56.3467 24.8495 56.24 24.9562C56.1333 25.0629 56.0067 25.1162 55.86 25.1162H47.1C46.9533 25.1162 46.8267 25.0629 46.72 24.9562C46.6133 24.8495 46.56 24.7229 46.56 24.5762V11.6562C46.56 11.5095 46.6133 11.3829 46.72 11.2762C46.8267 11.1695 46.9533 11.1162 47.1 11.1162H48.72C48.8667 11.1162 48.9933 11.1695 49.1 11.2762C49.2067 11.3829 49.26 11.5095 49.26 11.6562V22.6162H55.86ZM58.1378 17.2762C58.1911 16.9962 58.3111 16.6962 58.4978 16.3762C58.6978 16.0562 58.9711 15.7562 59.3178 15.4762C59.6778 15.1962 60.1111 14.9695 60.6178 14.7962C61.1378 14.6095 61.7378 14.5162 62.4178 14.5162C63.0978 14.5162 63.7111 14.6095 64.2578 14.7962C64.8045 14.9695 65.2711 15.2295 65.6578 15.5762C66.0578 15.9229 66.3645 16.3629 66.5778 16.8962C66.7911 17.4162 66.8978 18.0162 66.8978 18.6962V24.5762C66.8978 24.7229 66.8445 24.8495 66.7378 24.9562C66.6311 25.0629 66.5045 25.1162 66.3578 25.1162H64.8378C64.6911 25.1162 64.5645 25.0629 64.4578 24.9562C64.3511 24.8495 64.2978 24.7229 64.2978 24.5762V23.9162C64.0178 24.3029 63.6111 24.6362 63.0778 24.9162C62.5578 25.1829 61.8911 25.3162 61.0778 25.3162C60.5045 25.3162 59.9911 25.2429 59.5378 25.0962C59.0845 24.9362 58.7045 24.7162 58.3978 24.4362C58.0911 24.1562 57.8511 23.8295 57.6778 23.4562C57.5178 23.0695 57.4378 22.6495 57.4378 22.1962C57.4378 21.2762 57.7645 20.5562 58.4178 20.0362C59.0711 19.5162 59.9445 19.1629 61.0378 18.9762L64.2978 18.4162C64.2978 17.8695 64.1178 17.4829 63.7578 17.2562C63.3978 17.0295 62.9511 16.9162 62.4178 16.9162C62.0845 16.9162 61.8245 16.9629 61.6378 17.0562C61.4511 17.1495 61.2711 17.2762 61.0978 17.4362C60.9778 17.5429 60.8645 17.6162 60.7578 17.6562C60.6645 17.6962 60.5578 17.7162 60.4378 17.7162H58.5778C58.4445 17.7162 58.3311 17.6762 58.2378 17.5962C58.1445 17.5162 58.1111 17.4095 58.1378 17.2762ZM61.4778 22.9162C61.9311 22.9162 62.3311 22.8562 62.6778 22.7362C63.0378 22.6029 63.3378 22.4295 63.5778 22.2162C63.8178 22.0029 63.9978 21.7629 64.1178 21.4962C64.2378 21.2295 64.2978 20.9562 64.2978 20.6762V20.4762L61.5778 20.9562C61.0311 21.0495 60.6378 21.1895 60.3978 21.3762C60.1578 21.5495 60.0378 21.7895 60.0378 22.0962C60.0378 22.3762 60.1778 22.5829 60.4578 22.7162C60.7511 22.8495 61.0911 22.9162 61.4778 22.9162ZM75.2236 22.1362C75.2236 21.9895 75.1769 21.8695 75.0836 21.7762C74.9903 21.6829 74.8236 21.5962 74.5836 21.5162C74.3569 21.4362 74.0503 21.3562 73.6636 21.2762C73.2769 21.1962 72.7836 21.0895 72.1836 20.9562C71.5969 20.8229 71.1103 20.6562 70.7236 20.4562C70.3369 20.2562 70.0236 20.0229 69.7836 19.7562C69.5569 19.4895 69.3969 19.1895 69.3036 18.8562C69.2103 18.5095 69.1636 18.1362 69.1636 17.7362C69.1636 17.3362 69.2569 16.9429 69.4436 16.5562C69.6303 16.1695 69.8969 15.8295 70.2436 15.5362C70.6036 15.2295 71.0369 14.9829 71.5436 14.7962C72.0503 14.6095 72.6303 14.5162 73.2836 14.5162C73.9369 14.5162 74.5169 14.5895 75.0236 14.7362C75.5436 14.8829 75.9836 15.0762 76.3436 15.3162C76.7036 15.5562 76.9836 15.8362 77.1836 16.1562C77.3836 16.4629 77.4969 16.7762 77.5236 17.0962C77.5369 17.2429 77.4836 17.3695 77.3636 17.4762C77.2569 17.5829 77.1303 17.6362 76.9836 17.6362H75.4436C75.2436 17.6362 75.0903 17.6029 74.9836 17.5362C74.8903 17.4562 74.7836 17.3695 74.6636 17.2762C74.5436 17.1829 74.3836 17.1029 74.1836 17.0362C73.9836 16.9562 73.6836 16.9162 73.2836 16.9162C72.8836 16.9162 72.5303 16.9762 72.2236 17.0962C71.9169 17.2162 71.7636 17.4295 71.7636 17.7362C71.7636 17.8829 71.7969 18.0095 71.8636 18.1162C71.9436 18.2095 72.0836 18.2962 72.2836 18.3762C72.4969 18.4562 72.7836 18.5429 73.1436 18.6362C73.5169 18.7162 73.9969 18.8162 74.5836 18.9362C75.7703 19.1895 76.6036 19.5895 77.0836 20.1362C77.5769 20.6695 77.8236 21.3362 77.8236 22.1362C77.8236 22.5362 77.7236 22.9295 77.5236 23.3162C77.3236 23.6895 77.0303 24.0295 76.6436 24.3362C76.2703 24.6295 75.8036 24.8695 75.2436 25.0562C74.6969 25.2295 74.0769 25.3162 73.3836 25.3162C72.6769 25.3162 72.0503 25.2362 71.5036 25.0762C70.9703 24.9029 70.5169 24.6829 70.1436 24.4162C69.7703 24.1495 69.4836 23.8495 69.2836 23.5162C69.0836 23.1829 68.9769 22.8562 68.9636 22.5362C68.9503 22.3895 68.9969 22.2629 69.1036 22.1562C69.2236 22.0495 69.3569 21.9962 69.5036 21.9962H71.0436C71.2436 21.9962 71.3903 22.0429 71.4836 22.1362C71.5903 22.2295 71.7036 22.3362 71.8236 22.4562C71.9569 22.5762 72.1369 22.6829 72.3636 22.7762C72.5903 22.8695 72.9303 22.9162 73.3836 22.9162C73.5836 22.9162 73.7903 22.9029 74.0036 22.8762C74.2169 22.8495 74.4103 22.8095 74.5836 22.7562C74.7703 22.6895 74.9236 22.6095 75.0436 22.5162C75.1636 22.4095 75.2236 22.2829 75.2236 22.1362ZM82.5542 24.5762C82.5542 24.7229 82.5009 24.8495 82.3942 24.9562C82.2876 25.0629 82.1609 25.1162 82.0142 25.1162H80.4942C80.3476 25.1162 80.2209 25.0629 80.1142 24.9562C80.0076 24.8495 79.9542 24.7229 79.9542 24.5762V11.4562C79.9542 11.3095 80.0076 11.1829 80.1142 11.0762C80.2209 10.9695 80.3476 10.9162 80.4942 10.9162H82.0142C82.1609 10.9162 82.2876 10.9695 82.3942 11.0762C82.5009 11.1829 82.5542 11.3095 82.5542 11.4562V24.5762ZM84.7858 19.9162C84.7858 19.1695 84.8991 18.4695 85.1258 17.8162C85.3524 17.1495 85.6791 16.5762 86.1058 16.0962C86.5324 15.6029 87.0458 15.2162 87.6458 14.9362C88.2591 14.6562 88.9391 14.5162 89.6858 14.5162C90.4324 14.5162 91.1058 14.6562 91.7058 14.9362C92.3191 15.2029 92.8391 15.5695 93.2658 16.0362C93.6924 16.4895 94.0191 17.0295 94.2458 17.6562C94.4858 18.2695 94.6058 18.9162 94.6058 19.5962V20.4962C94.6058 20.6429 94.5524 20.7695 94.4458 20.8762C94.3391 20.9829 94.2124 21.0362 94.0658 21.0362H87.3858C87.3858 21.3429 87.4458 21.6162 87.5658 21.8562C87.6991 22.0829 87.8724 22.2762 88.0858 22.4362C88.2991 22.5962 88.5458 22.7162 88.8258 22.7962C89.1058 22.8762 89.3924 22.9162 89.6858 22.9162C90.1124 22.9162 90.4591 22.8762 90.7258 22.7962C90.9924 22.7029 91.2124 22.5895 91.3858 22.4562C91.5324 22.3495 91.6524 22.2762 91.7458 22.2362C91.8391 22.1962 91.9658 22.1762 92.1258 22.1762H93.7258C93.8724 22.1762 93.9991 22.2295 94.1058 22.3362C94.2258 22.4429 94.2791 22.5695 94.2658 22.7162C94.2524 22.9029 94.1458 23.1429 93.9458 23.4362C93.7591 23.7295 93.4724 24.0162 93.0858 24.2962C92.6991 24.5762 92.2191 24.8162 91.6458 25.0162C91.0858 25.2162 90.4324 25.3162 89.6858 25.3162C88.9391 25.3162 88.2591 25.1895 87.6458 24.9362C87.0458 24.6695 86.5324 24.2962 86.1058 23.8162C85.6791 23.3362 85.3524 22.7695 85.1258 22.1162C84.8991 21.4495 84.7858 20.7162 84.7858 19.9162ZM89.6858 16.9162C89.2991 16.9162 88.9658 16.9762 88.6858 17.0962C88.4191 17.2029 88.1924 17.3495 88.0058 17.5362C87.8191 17.7095 87.6724 17.9095 87.5658 18.1362C87.4724 18.3495 87.4124 18.5562 87.3858 18.7562H91.9058C91.8791 18.5562 91.8258 18.3495 91.7458 18.1362C91.6791 17.9095 91.5591 17.7095 91.3858 17.5362C91.2258 17.3495 91.0058 17.2029 90.7258 17.0962C90.4591 16.9762 90.1124 16.9162 89.6858 16.9162ZM102.45 22.1362C102.45 21.9895 102.403 21.8695 102.31 21.7762C102.217 21.6829 102.05 21.5962 101.81 21.5162C101.583 21.4362 101.277 21.3562 100.89 21.2762C100.503 21.1962 100.01 21.0895 99.4102 20.9562C98.8235 20.8229 98.3368 20.6562 97.9502 20.4562C97.5635 20.2562 97.2502 20.0229 97.0102 19.7562C96.7835 19.4895 96.6235 19.1895 96.5302 18.8562C96.4368 18.5095 96.3902 18.1362 96.3902 17.7362C96.3902 17.3362 96.4835 16.9429 96.6702 16.5562C96.8568 16.1695 97.1235 15.8295 97.4702 15.5362C97.8302 15.2295 98.2635 14.9829 98.7702 14.7962C99.2768 14.6095 99.8568 14.5162 100.51 14.5162C101.163 14.5162 101.743 14.5895 102.25 14.7362C102.77 14.8829 103.21 15.0762 103.57 15.3162C103.93 15.5562 104.21 15.8362 104.41 16.1562C104.61 16.4629 104.723 16.7762 104.75 17.0962C104.763 17.2429 104.71 17.3695 104.59 17.4762C104.483 17.5829 104.357 17.6362 104.21 17.6362H102.67C102.47 17.6362 102.317 17.6029 102.21 17.5362C102.117 17.4562 102.01 17.3695 101.89 17.2762C101.77 17.1829 101.61 17.1029 101.41 17.0362C101.21 16.9562 100.91 16.9162 100.51 16.9162C100.11 16.9162 99.7568 16.9762 99.4502 17.0962C99.1435 17.2162 98.9902 17.4295 98.9902 17.7362C98.9902 17.8829 99.0235 18.0095 99.0902 18.1162C99.1702 18.2095 99.3102 18.2962 99.5102 18.3762C99.7235 18.4562 100.01 18.5429 100.37 18.6362C100.743 18.7162 101.223 18.8162 101.81 18.9362C102.997 19.1895 103.83 19.5895 104.31 20.1362C104.803 20.6695 105.05 21.3362 105.05 22.1362C105.05 22.5362 104.95 22.9295 104.75 23.3162C104.55 23.6895 104.257 24.0295 103.87 24.3362C103.497 24.6295 103.03 24.8695 102.47 25.0562C101.923 25.2295 101.303 25.3162 100.61 25.3162C99.9035 25.3162 99.2768 25.2362 98.7302 25.0762C98.1968 24.9029 97.7435 24.6829 97.3702 24.4162C96.9968 24.1495 96.7102 23.8495 96.5102 23.5162C96.3102 23.1829 96.2035 22.8562 96.1902 22.5362C96.1768 22.3895 96.2235 22.2629 96.3302 22.1562C96.4502 22.0495 96.5835 21.9962 96.7302 21.9962H98.2702C98.4702 21.9962 98.6168 22.0429 98.7102 22.1362C98.8168 22.2295 98.9302 22.3362 99.0502 22.4562C99.1835 22.5762 99.3635 22.6829 99.5902 22.7762C99.8168 22.8695 100.157 22.9162 100.61 22.9162C100.81 22.9162 101.017 22.9029 101.23 22.8762C101.443 22.8495 101.637 22.8095 101.81 22.7562C101.997 22.6895 102.15 22.6095 102.27 22.5162C102.39 22.4095 102.45 22.2829 102.45 22.1362ZM111.441 25.1162C110.921 25.1162 110.567 24.8495 110.381 24.3162L106.301 11.8162C106.274 11.7229 106.254 11.6629 106.241 11.6362C106.241 11.6095 106.241 11.5829 106.241 11.5562C106.241 11.4362 106.281 11.3362 106.361 11.2562C106.454 11.1629 106.561 11.1162 106.681 11.1162H109.201C109.467 11.1162 109.654 11.1762 109.761 11.2962C109.881 11.4029 109.954 11.5095 109.981 11.6162L112.761 20.4162L115.541 11.6162C115.567 11.5095 115.634 11.4029 115.741 11.2962C115.861 11.1762 116.054 11.1162 116.321 11.1162H118.841C118.961 11.1162 119.061 11.1629 119.141 11.2562C119.234 11.3362 119.281 11.4362 119.281 11.5562C119.281 11.5829 119.274 11.6095 119.261 11.6362C119.261 11.6629 119.247 11.7229 119.221 11.8162L115.141 24.3162C114.954 24.8495 114.601 25.1162 114.081 25.1162H111.441ZM127.387 11.1162C128.24 11.1162 129.007 11.2162 129.687 11.4162C130.367 11.6029 130.947 11.8962 131.427 12.2962C131.907 12.6829 132.273 13.1695 132.527 13.7562C132.793 14.3429 132.927 15.0229 132.927 15.7962C132.927 16.5829 132.793 17.2695 132.527 17.8562C132.273 18.4429 131.907 18.9295 131.427 19.3162C130.947 19.7029 130.367 19.9962 129.687 20.1962C129.007 20.3962 128.24 20.4962 127.387 20.4962H124.827V24.5762C124.827 24.7229 124.773 24.8495 124.667 24.9562C124.56 25.0629 124.433 25.1162 124.287 25.1162H121.667C121.52 25.1162 121.393 25.0629 121.287 24.9562C121.18 24.8495 121.127 24.7229 121.127 24.5762V11.6562C121.127 11.5095 121.18 11.3829 121.287 11.2762C121.393 11.1695 121.52 11.1162 121.667 11.1162H127.387ZM124.827 17.3762H127.287C127.847 17.3762 128.307 17.2562 128.667 17.0162C129.04 16.7629 129.227 16.3562 129.227 15.7962C129.227 15.2362 129.04 14.8362 128.667 14.5962C128.307 14.3429 127.847 14.2162 127.287 14.2162H124.827V17.3762ZM143.938 25.1162C143.711 25.1162 143.524 25.0562 143.378 24.9362C143.244 24.8162 143.158 24.7229 143.118 24.6562L138.538 17.8162V24.5762C138.538 24.7229 138.484 24.8495 138.378 24.9562C138.271 25.0629 138.144 25.1162 137.998 25.1162H135.378C135.231 25.1162 135.104 25.0629 134.998 24.9562C134.891 24.8495 134.838 24.7229 134.838 24.5762V11.6562C134.838 11.5095 134.891 11.3829 134.998 11.2762C135.104 11.1695 135.231 11.1162 135.378 11.1162H137.458C137.684 11.1162 137.864 11.1762 137.998 11.2962C138.144 11.4162 138.238 11.5095 138.278 11.5762L142.858 18.4162V11.6562C142.858 11.5095 142.911 11.3829 143.018 11.2762C143.124 11.1695 143.251 11.1162 143.398 11.1162H146.018C146.164 11.1162 146.291 11.1695 146.398 11.2762C146.504 11.3829 146.558 11.5095 146.558 11.6562V24.5762C146.558 24.7229 146.504 24.8495 146.398 24.9562C146.291 25.0629 146.164 25.1162 146.018 25.1162H143.938Z" fill="#0B132A"/>
<path d="M31.1473 13.6477L31.1255 13.626C31.1238 13.6247 31.1224 13.6231 31.1215 13.6212L17.5006 0L3.87983 13.6209C3.87826 13.6225 3.8758 13.6256 3.8758 13.6256L3.85333 13.6474C1.77053 15.7419 0.447586 18.4725 0.0948177 21.4052C-0.25795 24.3379 0.379698 27.3044 1.90639 29.8331C3.43309 32.3619 5.76122 34.3077 8.52069 35.3612C11.2802 36.4147 14.3126 36.5157 17.136 35.6477C17.3735 35.5751 17.6275 35.5751 17.8651 35.6477C20.6882 36.5153 23.7205 36.4144 26.4798 35.3607C29.2391 34.307 31.567 32.3613 33.0936 29.8328C34.6202 27.3042 35.2579 24.3379 34.9053 21.4054C34.5526 18.4728 33.2299 15.7422 31.1473 13.6477ZM8.7232 22.6298C8.65689 22.6961 8.6043 22.7749 8.56844 22.8615C8.53257 22.948 8.5141 23.0408 8.51412 23.1346C8.53835 25.5386 9.21776 27.8904 10.4792 29.9371C10.5079 29.9835 10.5211 30.0379 10.517 30.0922C10.513 30.1465 10.4918 30.1982 10.4566 30.2399C10.4213 30.2816 10.3738 30.311 10.3209 30.324C10.2679 30.337 10.2122 30.333 10.1616 30.3124C9.21332 29.9135 8.35182 29.3336 7.62531 28.6053C6.13646 27.1162 5.29946 25.097 5.2981 22.9912C5.29675 20.8855 6.13117 18.8652 7.61812 17.3743L17.5006 7.49273L27.3826 17.3743C28.8698 18.865 29.7045 20.8853 29.703 22.9912C29.7018 25.097 28.8647 27.1162 27.3757 28.6053C26.6492 29.3336 25.7877 29.9135 24.8396 30.3124C24.7889 30.333 24.7332 30.337 24.6802 30.324C24.6273 30.311 24.5798 30.2814 24.5445 30.2399C24.5093 30.1982 24.488 30.1465 24.484 30.092C24.4799 30.0377 24.4931 29.9833 24.5218 29.9369C25.7835 27.8904 26.4633 25.5386 26.4879 23.1346C26.4879 23.0408 26.4692 22.948 26.4332 22.8613C26.3971 22.7746 26.3444 22.696 26.2779 22.6296L21.6037 17.6717C21.5571 17.6329 21.4985 17.6116 21.4378 17.6116C21.3773 17.6116 21.3186 17.6329 21.2721 17.6717C21.2255 17.7104 21.1942 17.7644 21.1833 17.824C21.1724 17.8837 21.1828 17.945 21.2127 17.9978C23.0281 21.283 21.467 26.0017 18.8637 28.6053L18.85 28.6191C18.4907 28.9745 18.0056 29.1738 17.5002 29.1736C16.9948 29.1734 16.5098 28.9738 16.1508 28.6182L16.1382 28.6053C13.5339 26.0017 11.9736 21.2835 13.7893 17.9985C13.8192 17.9457 13.8296 17.8844 13.8187 17.8247C13.8079 17.7651 13.7764 17.7111 13.7299 17.6724C13.6834 17.6336 13.6247 17.6123 13.5642 17.6123C13.5036 17.6123 13.4449 17.6336 13.3984 17.6724L8.7232 22.6298Z" fill="#F53838"/>
</svg>
